<svg xmlns="http://www.w3.org/2000/svg" width="149" height="149"><defs><clipPath id="a"><path fill="#fff" d="M121.058 79.084l7.943-4.583-7.942-4.586 6.894-6.046-8.683-2.95 5.583-7.275-9.093-1.198 4.057-8.223-9.152.598 2.375-8.857-8.86 2.371.601-9.15-8.227 4.056-1.196-9.094-7.276 5.583-2.947-8.683-6.048 6.895-4.586-7.943-4.585 7.943-6.048-6.895-2.948 8.683-7.276-5.583-1.197 9.094-8.226-4.058.6 9.152-8.858-2.373 2.373 8.859-9.151-.6 4.056 8.225-9.093 1.196 5.583 7.277-8.685 2.948 6.895 6.048-7.942 4.584 7.942 4.585-6.896 6.049 8.686 2.948-5.584 7.274 9.093 1.198-4.057 8.226 9.152-.6-2.373 8.859 8.859-2.374-.6 9.152 8.225-4.057 1.197 9.093 7.277-5.583 2.946 8.683 6.049-6.893L74.498 129l4.587-7.94 6.046 6.895 2.95-8.686 7.275 5.583 1.198-9.093 8.224 4.057-.599-9.152 8.858 2.376-2.372-8.862 9.15.603-4.055-8.228 9.092-1.196-5.582-7.276 8.683-2.948z"/></clipPath></defs><path fill="none" stroke="#e4e9eb" stroke-miterlimit="20" stroke-width="2" d="M121.058 79.084v0l7.943-4.583v0l-7.942-4.586v0l6.894-6.046v0l-8.683-2.95v0l5.583-7.275v0l-9.093-1.198v0l4.057-8.223v0l-9.152.598v0l2.375-8.857v0l-8.86 2.371v0l.601-9.15v0l-8.227 4.056v0l-1.196-9.094v0l-7.276 5.583v0l-2.947-8.683v0l-6.048 6.895v0L74.5 19.999v0l-4.585 7.943v0l-6.048-6.895v0L60.92 29.73v0l-7.276-5.583v0l-1.197 9.094v0l-8.226-4.058v0l.6 9.152v0l-8.858-2.373v0l2.373 8.859v0l-9.151-.6v0l4.056 8.225v0l-9.093 1.196v0l5.583 7.277v0l-8.685 2.948v0l6.895 6.048v0l-7.942 4.584v0l7.942 4.585v0l-6.896 6.049v0l8.686 2.948v0l-5.584 7.274v0l9.093 1.198v0l-4.057 8.226v0l9.152-.6v0l-2.373 8.859v0l8.859-2.374v0l-.6 9.152v0l8.225-4.057v0l1.197 9.093v0l7.277-5.583v0l2.946 8.683v0l6.049-6.893v0L74.498 129v0l4.587-7.94v0l6.046 6.895v0l2.95-8.686v0l7.275 5.583v0l1.198-9.093v0l8.224 4.057v0l-.599-9.152v0l8.858 2.376v0l-2.372-8.862v0l9.15.603v0l-4.055-8.228v0l9.092-1.196v0l-5.582-7.276v0l8.683-2.948v0z" clip-path="url(&quot;#a&quot;)"/><text dominant-baseline="text-before-edge" style="line-height:21px" fill="#f37a1f" font-family="'FontAwesome5Brands','FontAwesome5Brands-Regular'" font-size="34" font-style="none" font-weight="400" transform="translate(54 59)"><tspan style="font-kerning:normal"></tspan></text></svg>