<svg width="24" height="24" xmlns="http://www.w3.org/2000/svg" fill="none"><path d="M20.343 5.443h-7.6V4.326a2.23 2.23 0 001.484-2.1A2.23 2.23 0 0012 0a2.23 2.23 0 00-2.227 2.227c0 .967.62 1.793 1.485 2.099v1.117h-7.6L0 13.463v.16a4.139 4.139 0 004.134 4.135 4.139 4.139 0 004.135-4.134v-.161l-2.98-6.535h5.969v12.618H7.683L6.198 24h11.604l-1.485-4.454h-3.575V6.928h5.97l-2.98 6.535v.16a4.139 4.139 0 004.134 4.135A4.14 4.14 0 0024 13.624v-.161l-3.657-8.02zM12 1.485a.743.743 0 11-.002 1.486A.743.743 0 0112 1.485zM4.134 16.274a2.654 2.654 0 01-2.543-1.908h5.087a2.654 2.654 0 01-2.544 1.908zm2.238-3.392H1.897l2.237-4.908 2.238 4.908zm9.37 9.633H8.258l.495-1.484h6.494l.495 1.485zm4.124-14.54l2.238 4.907h-4.476l2.238-4.908zm0 8.299a2.654 2.654 0 01-2.544-1.908h5.087a2.654 2.654 0 01-2.543 1.908z" fill="#F37A1F"/></svg>